<?xml version="1.0" encoding="utf-8"?>
<!-- Generator: Adobe Illustrator 26.3.1, SVG Export Plug-In . SVG Version: 6.00 Build 0)  -->
<svg version="1.1" id="Layer_1" xmlns="http://www.w3.org/2000/svg" xmlns:xlink="http://www.w3.org/1999/xlink" x="0px" y="0px"
	 viewBox="0 0 128 128" style="enable-background:new 0 0 128 128;" xml:space="preserve">
<style type="text/css">
	.st0{fill-rule:evenodd;clip-rule:evenodd;fill:#343A4A;}
</style>
<g>
	<path class="st0" d="M25,54.21c0-2.38-1.93-4.31-4.31-4.31c-2.38,0-4.31,1.93-4.31,4.31c0,2.38,1.93,4.31,4.31,4.31
		C23.07,58.52,25,56.59,25,54.21L25,54.21z M103,54.21c0,2.38,1.93,4.31,4.31,4.31c2.38,0,4.31-1.93,4.31-4.31
		c0-2.38-1.93-4.31-4.31-4.31C104.93,49.9,103,51.83,103,54.21L103,54.21L103,54.21z M64.1,53.81c20.86,0.96,35.93,7.13,54.42,15.96
		c0.81,0.39,1.29,1.15,1.29,2.05v0.12c0,1.13-0.81,2.07-1.92,2.25c-6.04,0.94-7.79,10.94-8.27,15.31c-0.13,1.16-1.1,2.03-2.26,2.03
		h-7.24c-1.22,0-2.23-0.97-2.27-2.19c-0.23-6.4-1.75-24.66-11.64-24.92c-10.03-0.26-13.57,18.89-14.46,25.16
		c-0.16,1.13-1.11,1.95-2.25,1.95h-11c-1.14,0-2.09-0.83-2.25-1.95c-0.89-6.26-4.42-25.42-14.46-25.16
		c-9.89,0.26-11.41,18.51-11.64,24.92c-0.04,1.22-1.05,2.19-2.27,2.19h-7.24c-1.16,0-2.13-0.87-2.26-2.03
		c-0.48-4.37-2.23-14.37-8.27-15.31c-1.12-0.17-1.92-1.12-1.92-2.25v-0.12c0-0.9,0.48-1.67,1.29-2.05
		c18.49-8.82,33.56-15,54.42-15.96C63.97,53.81,64.03,53.81,64.1,53.81L64.1,53.81z M58.27,42.2c0,3.16,2.56,5.73,5.73,5.73
		c3.16,0,5.73-2.56,5.73-5.73c0-3.16-2.56-5.73-5.73-5.73C60.84,36.48,58.27,39.04,58.27,42.2L58.27,42.2L58.27,42.2z"/>
</g>
</svg>
