<?xml version="1.0" encoding="UTF-8"?>
<svg width="752pt" height="752pt" version="1.1" viewBox="0 0 752 752" xmlns="http://www.w3.org/2000/svg">
 <path d="m589.11 262.82v213.11c0 22.258-11.367 46.41-33.152 46.41h-346.66c-22.258 0-46.41-24.625-46.41-46.41v-213.11-2.3672c-0.94531-4.2617 4.7344-13.734 5.6836-14.68 8.5234-10.891 25.102-16.102 40.727-16.102l346.66-0.003907c17.051 0 27.469 7.1055 31.258 19.891 0 0.47266 2.3672 6.6289 1.8945 9.9453v3.3164zm-392.6-6.1562 179.48 143.02 179.96-143.5h0.47266-0.47266s-355.18 0-359.45 0.47656zm366.08 219.27v-190.85h0.47266-0.47266l-177.59 142.07c-2.3672 1.8945-5.6836 3.3164-8.5234 3.3164-3.3164 0-6.1562-0.94531-8.5234-3.3164l-177.59-142.07v190.85c0 7.1055 12.785 19.891 19.891 19.891h345.71c7.1055 0 6.6328-12.785 6.6328-19.891zm-373.18-190.85m367.03-28.891c-0.47656 0-0.47656 0 0 0-0.47656 0 0 0 0 0z"/>
</svg>
