<?xml version="1.0" encoding="utf-8"?>
<!-- Generator: Adobe Illustrator 26.3.1, SVG Export Plug-In . SVG Version: 6.00 Build 0)  -->
<svg version="1.0" id="Layer_1" xmlns="http://www.w3.org/2000/svg" xmlns:xlink="http://www.w3.org/1999/xlink" x="0px" y="0px"
	 viewBox="0 0 752 752" style="enable-background:new 0 0 752 752;" xml:space="preserve">
<path d="M589.1,262.8v213.1c0,22.3-11.4,46.4-33.2,46.4H209.3c-22.3,0-46.4-24.6-46.4-46.4V262.8v-2.4c-0.9-4.3,4.7-13.7,5.7-14.7
	c8.5-10.9,25.1-16.1,40.7-16.1l346.7,0c17.1,0,27.5,7.1,31.3,19.9c0,0.5,2.4,6.6,1.9,9.9L589.1,262.8L589.1,262.8z M196.5,256.7
	l179.5,143l180-143.5h0.5H556C556,256.2,200.8,256.2,196.5,256.7L196.5,256.7z M562.6,475.9V285.1h0.5h-0.5L385,427.2
	c-2.4,1.9-5.7,3.3-8.5,3.3c-3.3,0-6.2-0.9-8.5-3.3L190.4,285.1v190.9c0,7.1,12.8,19.9,19.9,19.9H556
	C563.1,495.8,562.6,483,562.6,475.9L562.6,475.9z M556.4,256.2C556,256.2,556,256.2,556.4,256.2C556,256.2,556.4,256.2,556.4,256.2z
	"/>
</svg>
