<?xml version="1.0" encoding="utf-8"?>
<!-- Generator: Adobe Illustrator 26.3.1, SVG Export Plug-In . SVG Version: 6.00 Build 0)  -->
<svg version="1.1" id="Layer_1" xmlns="http://www.w3.org/2000/svg" xmlns:xlink="http://www.w3.org/1999/xlink" x="0px" y="0px"
	 viewBox="0 0 1250 702.75" style="enable-background:new 0 0 1250 702.75;" xml:space="preserve">
<style type="text/css">
	.st0{fill:#343A4A;}
	.st1{fill-rule:evenodd;clip-rule:evenodd;fill:#343A4A;}
</style>
<g>
	<g>
		<g>
			<path class="st0" d="M125.6,497.38V293.34h68.09c43.17,103.27,51.97,126.79,54.43,135.36h1.01c-2.09-23.86-2.8-58.8-2.8-90.5
				v-44.86h51.49v204.04h-65.69C185.1,381.91,178.28,363.56,175.7,355.9h-0.61c1.8,25.63,1.89,60.57,1.89,95.88v45.61H125.6z"/>
			<path class="st0" d="M381.49,430.45c-0.1,17.75,5.65,32.73,22.78,32.73c13.74,0,17.95-8.14,20.04-15.22h52.32
				c-6.27,23.66-23.47,52.53-73.76,52.53c-56.05,0-76.46-36.76-76.46-81.12c0-39.59,20-81.6,78.03-81.6
				c56.93,0,74.07,38.94,74.07,79.66c0,1.55-0.19,11.28-0.39,13.02H381.49z M424.51,400.26c-0.39-14.76-4.76-26.89-20.87-26.89
				c-16.75,0-21.38,13.03-21.76,26.89H424.51z"/>
			<path class="st0" d="M646.94,449.1c0,25.25,0.19,39.92,0.49,48.28h-53.17c-0.89-4.14-1.3-11.46-1.49-16.76
				c-10.03,14.73-22.81,19.86-42.44,19.86c-32.48,0-47.67-19.9-47.67-54.33v-105.1h54.48v96.59c0,13.4,4.2,21.44,16.15,21.44
				c12.55,0,18.96-7.97,18.96-28.36v-89.67h54.68V449.1z"/>
			<path class="st0" d="M664.98,341.06h20.32v-40.27h54.17v40.27h25.15v38.26h-25.15V448c0,9.71,2.38,13.57,14.27,13.57
				c3.05,0,3.86,0,7.8-0.49v34.7c-9.29,3-23.51,3.61-30.64,3.61c-35.67,0-45.61-13.34-45.61-43.99v-76.08h-20.32V341.06z"/>
			<path class="st0" d="M787.24,394.14c0-26.36,0-43.74-0.49-53.08h53.17c0.68,6.03,1.19,19.32,0.98,28
				c5.19-15.08,18.84-30.91,45.67-30.91v51.63c-32.97-0.68-44.76,8.79-44.76,41.61v66h-54.57V394.14z"/>
			<path class="st0" d="M1043.71,452.51c0,12.73,0.6,34.51,2.19,44.88h-47.55c-1.4-3.95-2.29-12.23-2.8-16.54
				c-9.07,12.97-24.1,19.64-43.98,19.64c-35.83,0-51.92-22.39-51.92-48.32c0-27.55,17.33-52.09,73.92-52.09c3.98,0,10.25,0,16.99,0
				V388.9c0-11.07-3.67-17.83-16.18-17.83c-13.64,0-16.69,7.47-17.67,17.5h-51.3c1.49-24.87,17.24-50.81,70.2-50.81
				c46.65,0,68.11,16.81,68.11,53.44V452.51z M991.52,428.41c-4.11,0-8.02,0-13.71,0c-20.08,0-24.33,9.28-24.33,18.61
				c0,9.12,5.24,16.21,16.71,16.21c18.03,0,21.33-12.37,21.33-30.8V428.41z"/>
			<path class="st0" d="M1076.59,497.38V282.2h54.57v215.18H1076.59z"/>
		</g>
	</g>
	<g>
		<path class="st1" d="M461.3,124.41c0-10.06-8.16-18.22-18.22-18.22c-10.06,0-18.22,8.16-18.22,18.22
			c0,10.06,8.16,18.22,18.22,18.22C453.14,142.64,461.3,134.48,461.3,124.41L461.3,124.41z M791.15,124.41
			c0,10.06,8.16,18.22,18.23,18.22c10.06,0,18.22-8.16,18.22-18.22c0-10.06-8.16-18.22-18.22-18.22
			C799.31,106.19,791.15,114.35,791.15,124.41L791.15,124.41L791.15,124.41z M626.66,122.72c88.21,4.05,151.93,30.17,230.13,67.49
			c3.42,1.63,5.47,4.88,5.47,8.68v0.5c0,4.78-3.42,8.76-8.14,9.5c-25.53,3.98-32.95,46.27-34.98,64.75
			c-0.54,4.9-4.63,8.56-9.56,8.56h-30.62c-5.17,0-9.42-4.1-9.61-9.27c-0.97-27.09-7.42-104.29-49.22-105.39
			c-42.43-1.11-57.38,79.9-61.14,106.39c-0.68,4.77-4.7,8.27-9.52,8.27h-46.52c-4.82,0-8.84-3.49-9.52-8.27
			c-3.75-26.49-18.71-107.49-61.14-106.39c-41.8,1.09-48.25,78.3-49.22,105.39c-0.19,5.17-4.44,9.27-9.61,9.27h-30.62
			c-4.93,0-9.02-3.67-9.56-8.57c-2.03-18.48-9.45-60.77-34.98-64.75c-4.72-0.73-8.14-4.72-8.14-9.5v-0.5c0-3.8,2.05-7.04,5.47-8.68
			c78.19-37.32,141.92-63.44,230.12-67.49C626.09,122.7,626.35,122.7,626.66,122.72L626.66,122.72z M602.01,73.62
			c0,13.38,10.84,24.22,24.22,24.22c13.38,0,24.22-10.84,24.22-24.22c0-13.37-10.84-24.22-24.22-24.22
			C612.85,49.41,602.01,60.25,602.01,73.62L602.01,73.62L602.01,73.62z"/>
		<g>
			<g>
				<g>
					<path class="st0" d="M251.46,227.5h-22.19v17.24h24.42l-0.9,5.83h-30.28v-49.65h29.97v5.86h-23.21v14.83h22.19V227.5z"/>
					<path class="st0" d="M264.59,239.84c0.64,4.01,3.59,6.25,7.86,6.25c4.75,0,6.7-2.42,6.7-5.4c0-3.14-2.28-4.71-8.38-6.38
						c-9.09-2.49-11.44-5.78-11.44-10.75c0-4.8,3.23-10.38,12.61-10.38c9.01,0,12.59,4.92,13.06,10.66h-6.56
						c-0.53-2.78-2-5.54-6.81-5.54c-3.84,0-5.67,1.84-5.67,4.69c0,2.59,1.39,3.96,7.4,5.53c9.47,2.51,12.44,5.77,12.44,11.59
						c0,6.95-5.56,11.1-13.58,11.1c-7.86,0-13.54-3.67-14.25-11.37H264.59z"/>
					<path class="st0" d="M288.35,213.91h5.74v-10.52h6.66v10.52h7.23v5.42h-7.23v22.14c0,2.96,0.73,4.2,3.84,4.2
						c0.98,0,1.87-0.08,2.72-0.22v4.92c-1.51,0.53-3.72,0.64-5.01,0.64c-5.67,0-8.2-2.19-8.2-8.42v-23.26h-5.74V213.91z"/>
					<path class="st0" d="M343.36,198.14v42.75c0,3.67,0.03,7.44,0.14,9.68h-6.56c-0.1-0.97-0.24-3.25-0.24-5.2
						c-1.89,4.05-4.82,5.88-10.8,5.88c-9.47,0-14.2-7.94-14.2-18.94c0-10.67,5.57-19.12,15.49-19.12c5.83,0,8.52,2.27,9.47,4.19
						v-19.24H343.36z M318.6,232.03c0,8.52,3.55,13.56,9.2,13.56c7.58,0,9.13-5.65,9.13-13.97c0-9.73-2.67-12.73-8.76-12.73
						C322.34,218.88,318.6,223.56,318.6,232.03z"/>
					<path class="st0" d="M351.65,250.6v-10.17h6.56v10.17H351.65z"/>
				</g>
			</g>
			<g>
				<g>
					<path class="st0" d="M904.18,250.56v-0.36c0-5.39,2.61-12.88,13.79-21.86c6.72-5.51,9.33-7.72,9.33-13.03
						c0-4.25-2.29-8.06-7.74-8.06c-5.59,0-7.98,3.59-8.61,9.22h-6.42c0.45-7.74,4.76-14.69,15.28-14.69
						c9.69,0,14.37,6.15,14.37,13.41c0,6.88-3.22,10.46-11.69,17.16c-5.61,4.51-9.02,8.84-10.24,12.48h23.36l-0.9,5.73H904.18z"/>
					<path class="st0" d="M972.4,225.39c0,13.12-3.04,25.9-15.78,25.9c-13.13,0-15.89-13.12-15.89-25.71
						c0-12.58,4.31-23.79,15.99-23.79C968.76,201.78,972.4,212.51,972.4,225.39z M947.6,225.44c0,11.66,1.98,20.44,9.06,20.44
						c7.4,0,8.91-8.87,8.91-20.36c0-10.24-2.01-18.38-8.84-18.38C949.55,207.14,947.6,215.2,947.6,225.44z"/>
					<path class="st0" d="M978.27,250.56v-0.36c0-5.39,2.61-12.88,13.79-21.86c6.72-5.51,9.33-7.72,9.33-13.03
						c0-4.25-2.29-8.06-7.74-8.06c-5.59,0-7.98,3.59-8.62,9.22h-6.42c0.45-7.74,4.76-14.69,15.28-14.69
						c9.69,0,14.37,6.15,14.37,13.41c0,6.88-3.22,10.46-11.69,17.16c-5.61,4.51-9.02,8.84-10.25,12.48h23.36l-0.9,5.73H978.27z"/>
					<path class="st0" d="M1020.71,250.56v-40.28c-1.68,0.9-6.13,2.06-7.95,2.34v-5.16c3.64-0.73,7.56-2.78,9.92-5.16h4.69v48.26
						H1020.71z"/>
				</g>
			</g>
		</g>
	</g>
	<g>
		<g>
			<path class="st0" d="M362.31,600.71c0-16.84,0.24-35.99,0.66-46.58h-0.63c-4.37,19.02-15.89,56.86-24.79,84.21h-14.94
				c-6.63-22.99-18.42-65.3-22.62-84.45h-0.67c0.8,11.2,1.18,32.24,1.18,48.8v35.65H284.8v-96.18h25.42
				c7.96,24.52,18.03,60.01,20.93,74.14h0.18c2.02-11.36,14.55-49.38,22.87-74.14h24.54v96.18h-16.42V600.71z"/>
			<path class="st0" d="M457.5,595.24h-42.3v29.06h46.64l-2.1,14.05h-61.12v-96.18h60.73v14.15h-44.15v24.72h42.3V595.24z"/>
			<path class="st0" d="M475.05,542.17h32.74c27.52,0,44.47,17.08,44.47,45.96c0,31.33-16.69,50.22-45.53,50.22h-31.67V542.17z
				 M492.12,624.83h14.3c18.71,0,28.25-13.52,28.25-36.37c0-19.78-9.75-32.57-28.11-32.57h-14.44V624.83z"/>
			<path class="st0" d="M584.56,542.17v96.18h-16.97v-96.18H584.56z"/>
			<path class="st0" d="M619.37,613.3l-7.67,25.05h-16.76c3.14-9.33,26.54-85.59,30.05-96.18h21.85l31.51,96.18h-17.91l-8.1-25.05
				H619.37z M648.83,599.11c-6.72-21.3-11.22-35.25-13.29-43.78h-0.18c-2.45,10.92-7.03,25.86-12.61,43.78H648.83z"/>
			<path class="st0" d="M706.68,556.36H679.9v-14.19h70.71v14.19h-26.82v81.98h-17.11V556.36z"/>
			<path class="st0" d="M778.6,542.17v96.18h-16.97v-96.18H778.6z"/>
			<path class="st0" d="M878.34,589.75c0,27.66-13.19,49.99-42.76,49.99c-28.61,0-41.53-22.26-41.53-50.11
				c0-24.2,13.01-48.77,42.8-48.77C865.06,540.87,878.34,563.24,878.34,589.75z M811.64,589.62c0,20.35,8.16,36.43,24.7,36.43
				c17.76,0,24.6-15.28,24.6-36.25c0-19.17-6.87-35.23-24.81-35.23C818.97,554.57,811.64,570.16,811.64,589.62z"/>
			<path class="st0" d="M893.65,638.35v-96.18h21.87c31.91,61.91,36.73,71.31,38.3,75.76h0.24c-0.94-11.9-1.08-27.54-1.08-43.21
				v-32.55h15.64v96.18H947.8c-34.21-67.71-37.5-74.81-39.14-78.56h-0.14c0.7,12.25,0.71,28.7,0.71,45.91v32.66H893.65z"/>
		</g>
	</g>
</g>
</svg>
