<?xml version="1.0" encoding="utf-8"?>
<!-- Generator: Adobe Illustrator 26.3.1, SVG Export Plug-In . SVG Version: 6.00 Build 0)  -->
<svg version="1.1" id="Capa_1" xmlns="http://www.w3.org/2000/svg" xmlns:xlink="http://www.w3.org/1999/xlink" x="0px" y="0px"
	 viewBox="0 0 202.2 202.2" style="enable-background:new 0 0 202.2 202.2;" xml:space="preserve">
<style type="text/css">
	.st0{fill:#FFFFFF;}
</style>
<g>
	<g>
		<g>
			<path class="st0" d="M179.9,22.1V5.7H173v16.3h-24.8V5.7h-6.9v16.3h-27.6V5.7h-6.9v16.3H78.1V5.7h-6.9v16.3H43.8V5.7h-6.9v16.3
				H14.5v92.2h6.2V67.1H196v123.2H20.8v-55.6h-6.2v61.9h187.7V22.1H179.9z M196,60.9H20.8V28.3h16.1V43h6.9V28.3h27.5V43h6.9V28.3
				h28.7V43h6.9V28.3h27.6V43h6.9V28.3H173V43h6.9V28.3H196L196,60.9L196,60.9L196,60.9z"/>
		</g>
		<g>
			<polygon class="st0" points="58.2,158.9 62.5,163.2 101.3,124.4 62.5,85.7 58.2,90 89.5,121.4 0,121.4 0,127.5 89.5,127.5 			"/>
		</g>
	</g>
</g>
</svg>
