<?xml version="1.0" encoding="UTF-8"?><svg id="Layer_1" xmlns="http://www.w3.org/2000/svg" viewBox="0 0 711.28 488.2"><path d="M711.28,55.3V410.8c0,37.1-19,77.4-55.3,77.4H77.58C40.48,488.2,.18,447.1,.18,410.8V51.4c-1.6-7.1,7.9-22.9,9.5-24.5C23.88,8.7,51.58,0,77.58,0H655.88c28.4,0,45.8,11.9,52.1,33.2,0,.8,3.9,11.1,3.2,16.6l.1,5.5h0ZM56.28,45l299.4,238.6L655.88,44.2h0s-592.5,0-599.6,.8h0ZM666.98,410.8V92.4h0l-296.3,237c-3.9,3.2-9.5,5.5-14.2,5.5-5.5,0-10.3-1.6-14.2-5.5L45.98,92.4V410.8c0,11.9,21.3,33.2,33.2,33.2H655.88c11.9,0,11.1-21.3,11.1-33.2h0Zm-10.2-366.6q-.8,0,0,0c-.8,0,0,0,0,0Z"/></svg>