<?xml version="1.0" encoding="utf-8"?>
<!-- Generator: Adobe Illustrator 26.3.1, SVG Export Plug-In . SVG Version: 6.00 Build 0)  -->
<svg version="1.0" id="Layer_1" xmlns="http://www.w3.org/2000/svg" xmlns:xlink="http://www.w3.org/1999/xlink" x="0px" y="0px"
	 viewBox="0 0 752 528" style="enable-background:new 0 0 752 528;" xml:space="preserve">
<path d="M731.6,79.2v355.5c0,37.1-19,77.4-55.3,77.4H97.9c-37.1,0-77.4-41.1-77.4-77.4V79.2v-3.9c-1.6-7.1,7.9-22.9,9.5-24.5
	c14.2-18.2,41.9-26.9,67.9-26.9h578.3c28.4,0,45.8,11.9,52.1,33.2c0,0.8,3.9,11.1,3.2,16.6L731.6,79.2L731.6,79.2z M76.6,68.9
	L376,307.5L676.2,68.1h0.8h-0.8C676.2,68.1,83.7,68.1,76.6,68.9L76.6,68.9z M687.3,434.7V116.3h0.8h-0.8L391,353.3
	c-3.9,3.2-9.5,5.5-14.2,5.5c-5.5,0-10.3-1.6-14.2-5.5l-296.3-237v318.4c0,11.9,21.3,33.2,33.2,33.2h576.7
	C688.1,467.9,687.3,446.6,687.3,434.7L687.3,434.7z M677.1,68.1C676.3,68.1,676.3,68.1,677.1,68.1C676.3,68.1,677.1,68.1,677.1,68.1
	z"/>
</svg>
