<?xml version="1.0" encoding="utf-8"?>
<!-- Generator: Adobe Illustrator 26.3.1, SVG Export Plug-In . SVG Version: 6.00 Build 0)  -->
<svg version="1.1" id="Layer_1" xmlns="http://www.w3.org/2000/svg" xmlns:xlink="http://www.w3.org/1999/xlink" x="0px" y="0px"
	 viewBox="0 0 1250 702.8" style="enable-background:new 0 0 1250 702.8;" xml:space="preserve">
<style type="text/css">
	.st0{fill:#343A4A;}
	.st1{fill-rule:evenodd;clip-rule:evenodd;fill:#343A4A;}
</style>
<g>
	<g>
		<g>
			<path class="st0" d="M125.6,497.4v-204h68.1c43.2,103.3,52,126.8,54.4,135.4h1c-2.1-23.9-2.8-58.8-2.8-90.5v-44.9h51.5v204h-65.7
				c-47-115.5-53.8-133.8-56.4-141.5h-0.6c1.8,25.6,1.9,60.6,1.9,95.9v45.6L125.6,497.4L125.6,497.4z"/>
			<path class="st0" d="M381.5,430.5c-0.1,17.8,5.6,32.7,22.8,32.7c13.7,0,18-8.1,20-15.2h52.3c-6.3,23.7-23.5,52.5-73.8,52.5
				c-56,0-76.5-36.8-76.5-81.1c0-39.6,20-81.6,78-81.6c56.9,0,74.1,38.9,74.1,79.7c0,1.5-0.2,11.3-0.4,13H381.5z M424.5,400.3
				c-0.4-14.8-4.8-26.9-20.9-26.9c-16.8,0-21.4,13-21.8,26.9H424.5z"/>
			<path class="st0" d="M646.9,449.1c0,25.2,0.2,39.9,0.5,48.3h-53.2c-0.9-4.1-1.3-11.5-1.5-16.8c-10,14.7-22.8,19.9-42.4,19.9
				c-32.5,0-47.7-19.9-47.7-54.3V341h54.5v96.6c0,13.4,4.2,21.4,16.2,21.4c12.5,0,19-8,19-28.4V341h54.7L646.9,449.1L646.9,449.1z"
				/>
			<path class="st0" d="M665,341.1h20.3v-40.3h54.2v40.3h25.2v38.3h-25.2V448c0,9.7,2.4,13.6,14.3,13.6c3,0,3.9,0,7.8-0.5v34.7
				c-9.3,3-23.5,3.6-30.6,3.6c-35.7,0-45.6-13.3-45.6-44v-76.1H665L665,341.1L665,341.1z"/>
			<path class="st0" d="M787.2,394.1c0-26.4,0-43.7-0.5-53.1h53.2c0.7,6,1.2,19.3,1,28c5.2-15.1,18.8-30.9,45.7-30.9v51.6
				c-33-0.7-44.8,8.8-44.8,41.6v66h-54.6L787.2,394.1L787.2,394.1z"/>
			<path class="st0" d="M1043.7,452.5c0,12.7,0.6,34.5,2.2,44.9h-47.5c-1.4-4-2.3-12.2-2.8-16.5c-9.1,13-24.1,19.6-44,19.6
				c-35.8,0-51.9-22.4-51.9-48.3c0-27.5,17.3-52.1,73.9-52.1c4,0,10.2,0,17,0v-11.2c0-11.1-3.7-17.8-16.2-17.8
				c-13.6,0-16.7,7.5-17.7,17.5h-51.3c1.5-24.9,17.2-50.8,70.2-50.8c46.7,0,68.1,16.8,68.1,53.4L1043.7,452.5L1043.7,452.5z
				 M991.5,428.4c-4.1,0-8,0-13.7,0c-20.1,0-24.3,9.3-24.3,18.6c0,9.1,5.2,16.2,16.7,16.2c18,0,21.3-12.4,21.3-30.8V428.4z"/>
			<path class="st0" d="M1076.6,497.4V282.2h54.6v215.2H1076.6z"/>
		</g>
	</g>
	<g>
		<path class="st1" d="M461.3,124.4c0-10.1-8.2-18.2-18.2-18.2s-18.2,8.2-18.2,18.2s8.2,18.2,18.2,18.2
			C453.1,142.6,461.3,134.5,461.3,124.4L461.3,124.4z M791.2,124.4c0,10.1,8.2,18.2,18.2,18.2c10.1,0,18.2-8.2,18.2-18.2
			s-8.2-18.2-18.2-18.2C799.3,106.2,791.2,114.3,791.2,124.4L791.2,124.4L791.2,124.4z M626.7,122.7c88.2,4.1,151.9,30.2,230.1,67.5
			c3.4,1.6,5.5,4.9,5.5,8.7v0.5c0,4.8-3.4,8.8-8.1,9.5c-25.5,4-33,46.3-35,64.8c-0.5,4.9-4.6,8.6-9.6,8.6H779
			c-5.2,0-9.4-4.1-9.6-9.3c-1-27.1-7.4-104.3-49.2-105.4c-42.4-1.1-57.4,79.9-61.1,106.4c-0.7,4.8-4.7,8.3-9.5,8.3h-46.5
			c-4.8,0-8.8-3.5-9.5-8.3c-3.8-26.5-18.7-107.5-61.1-106.4c-41.8,1.1-48.2,78.3-49.2,105.4c-0.2,5.2-4.4,9.3-9.6,9.3h-30.6
			c-4.9,0-9-3.7-9.6-8.6c-2-18.5-9.5-60.8-35-64.8c-4.7-0.7-8.1-4.7-8.1-9.5v-0.5c0-3.8,2-7,5.5-8.7
			c78.2-37.3,141.9-63.4,230.1-67.5C626.1,122.7,626.3,122.7,626.7,122.7L626.7,122.7z M602,73.6c0,13.4,10.8,24.2,24.2,24.2
			c13.4,0,24.2-10.8,24.2-24.2c0-13.4-10.8-24.2-24.2-24.2C612.8,49.4,602,60.2,602,73.6L602,73.6L602,73.6z"/>
	</g>
	<g>
		<g>
			<path class="st0" d="M362.3,600.7c0-16.8,0.2-36,0.7-46.6h-0.6c-4.4,19-15.9,56.9-24.8,84.2h-14.9c-6.6-23-18.4-65.3-22.6-84.5
				h-0.7c0.8,11.2,1.2,32.2,1.2,48.8v35.7h-15.7v-96.2h25.4c8,24.5,18,60,20.9,74.1h0.2c2-11.4,14.5-49.4,22.9-74.1h24.5v96.2h-16.4
				L362.3,600.7L362.3,600.7z"/>
			<path class="st0" d="M457.5,595.2h-42.3v29.1h46.6l-2.1,14h-61.1v-96.2h60.7v14.2h-44.1V581h42.3L457.5,595.2L457.5,595.2z"/>
			<path class="st0" d="M475,542.2h32.7c27.5,0,44.5,17.1,44.5,46c0,31.3-16.7,50.2-45.5,50.2h-31.7L475,542.2L475,542.2z
				 M492.1,624.8h14.3c18.7,0,28.2-13.5,28.2-36.4c0-19.8-9.8-32.6-28.1-32.6h-14.4V624.8z"/>
			<path class="st0" d="M584.6,542.2v96.2h-17v-96.2H584.6z"/>
			<path class="st0" d="M619.4,613.3l-7.7,25h-16.8c3.1-9.3,26.5-85.6,30-96.2h21.8l31.5,96.2h-17.9l-8.1-25H619.4z M648.8,599.1
				c-6.7-21.3-11.2-35.2-13.3-43.8h-0.2c-2.5,10.9-7,25.9-12.6,43.8H648.8z"/>
			<path class="st0" d="M706.7,556.4h-26.8v-14.2h70.7v14.2h-26.8v82h-17.1L706.7,556.4L706.7,556.4z"/>
			<path class="st0" d="M778.6,542.2v96.2h-17v-96.2H778.6z"/>
			<path class="st0" d="M878.3,589.8c0,27.7-13.2,50-42.8,50c-28.6,0-41.5-22.3-41.5-50.1c0-24.2,13-48.8,42.8-48.8
				C865.1,540.9,878.3,563.2,878.3,589.8z M811.6,589.6c0,20.3,8.2,36.4,24.7,36.4c17.8,0,24.6-15.3,24.6-36.2
				c0-19.2-6.9-35.2-24.8-35.2C819,554.6,811.6,570.2,811.6,589.6z"/>
			<path class="st0" d="M893.7,638.3v-96.2h21.9c31.9,61.9,36.7,71.3,38.3,75.8h0.2c-0.9-11.9-1.1-27.5-1.1-43.2v-32.5h15.6v96.2
				h-20.8c-34.2-67.7-37.5-74.8-39.1-78.6h-0.1c0.7,12.2,0.7,28.7,0.7,45.9v32.7L893.7,638.3L893.7,638.3z"/>
		</g>
	</g>
</g>
</svg>
